{
    "asset" : {
        "generator" : "Khronos glTF Blender I/O v1.4.40",
        "version" : "2.0"
    },
    "scene" : 0,
    "scenes" : [
        {
            "name" : "Scene",
            "nodes" : [
                0
            ]
        }
    ],
    "nodes" : [
        {
            "mesh" : 0,
            "name" : "Helm",
            "rotation" : [
                0.7071068286895752,
                0,
                0,
                0.7071068286895752
            ]
        }
    ],
    "materials" : [
        {
            "doubleSided" : true,
            "name" : "Horns",
            "normalTexture" : {
                "index" : 0,
                "texCoord" : 0
            },
            "pbrMetallicRoughness" : {
                "baseColorTexture" : {
                    "index" : 1,
                    "texCoord" : 0
                },
                "metallicRoughnessTexture" : {
                    "index" : 2,
                    "texCoord" : 0
                }
            }
        },
        {
            "doubleSided" : true,
            "name" : "Helm",
            "normalTexture" : {
                "index" : 3,
                "texCoord" : 0
            },
            "pbrMetallicRoughness" : {
                "baseColorTexture" : {
                    "index" : 4,
                    "texCoord" : 0
                },
                "metallicRoughnessTexture" : {
                    "index" : 5,
                    "texCoord" : 0
                }
            }
        }
    ],
    "meshes" : [
        {
            "name" : "Helm",
            "primitives" : [
                {
                    "attributes" : {
                        "POSITION" : 0,
                        "NORMAL" : 1,
                        "TEXCOORD_0" : 2
                    },
                    "indices" : 3,
                    "material" : 0
                },
                {
                    "attributes" : {
                        "POSITION" : 4,
                        "NORMAL" : 5,
                        "TEXCOORD_0" : 6
                    },
                    "indices" : 7,
                    "material" : 1
                }
            ]
        }
    ],
    "textures" : [
        {
            "sampler" : 0,
            "source" : 0
        },
        {
            "sampler" : 0,
            "source" : 1
        },
        {
            "sampler" : 0,
            "source" : 2
        },
        {
            "sampler" : 0,
            "source" : 3
        },
        {
            "sampler" : 0,
            "source" : 4
        },
        {
            "sampler" : 0,
            "source" : 5
        }
    ],
    "images" : [
        {
            "mimeType" : "image/png",
            "name" : "Horns_nrm",
            "uri" : "Horns_nrm.png"
        },
        {
            "mimeType" : "image/png",
            "name" : "Horns_dif",
            "uri" : "Horns_dif.png"
        },
        {
            "mimeType" : "image/png",
            "name" : "Horns_mtl-Horns_rgh",
            "uri" : "Horns_mtl-Horns_rgh.png"
        },
        {
            "mimeType" : "image/png",
            "name" : "Helm_nrm",
            "uri" : "Helm_nrm.png"
        },
        {
            "mimeType" : "image/png",
            "name" : "Helm_dif",
            "uri" : "Helm_dif.png"
        },
        {
            "mimeType" : "image/png",
            "name" : "Helm_mtl-Heml_rgh",
            "uri" : "Helm_mtl-Heml_rgh.png"
        }
    ],
    "accessors" : [
        {
            "bufferView" : 0,
            "componentType" : 5126,
            "count" : 3873,
            "max" : [
                7.638236999511719,
                2.9014220237731934,
                2.6706950664520264
            ],
            "min" : [
                -7.638236999511719,
                -2.5266499519348145,
                -4.041974067687988
            ],
            "type" : "VEC3"
        },
        {
            "bufferView" : 1,
            "componentType" : 5126,
            "count" : 3873,
            "type" : "VEC3"
        },
        {
            "bufferView" : 2,
            "componentType" : 5126,
            "count" : 3873,
            "type" : "VEC2"
        },
        {
            "bufferView" : 3,
            "componentType" : 5123,
            "count" : 15840,
            "type" : "SCALAR"
        },
        {
            "bufferView" : 4,
            "componentType" : 5126,
            "count" : 612,
            "max" : [
                4.0448079109191895,
                7.503848075866699,
                4.2623291015625
            ],
            "min" : [
                -4.050786972045898,
                -3.6561570167541504,
                -6.8371357917785645
            ],
            "type" : "VEC3"
        },
        {
            "bufferView" : 5,
            "componentType" : 5126,
            "count" : 612,
            "type" : "VEC3"
        },
        {
            "bufferView" : 6,
            "componentType" : 5126,
            "count" : 612,
            "type" : "VEC2"
        },
        {
            "bufferView" : 7,
            "componentType" : 5123,
            "count" : 3204,
            "type" : "SCALAR"
        }
    ],
    "bufferViews" : [
        {
            "buffer" : 0,
            "byteLength" : 46476,
            "byteOffset" : 0
        },
        {
            "buffer" : 0,
            "byteLength" : 46476,
            "byteOffset" : 46476
        },
        {
            "buffer" : 0,
            "byteLength" : 30984,
            "byteOffset" : 92952
        },
        {
            "buffer" : 0,
            "byteLength" : 31680,
            "byteOffset" : 123936
        },
        {
            "buffer" : 0,
            "byteLength" : 7344,
            "byteOffset" : 155616
        },
        {
            "buffer" : 0,
            "byteLength" : 7344,
            "byteOffset" : 162960
        },
        {
            "buffer" : 0,
            "byteLength" : 4896,
            "byteOffset" : 170304
        },
        {
            "buffer" : 0,
            "byteLength" : 6408,
            "byteOffset" : 175200
        }
    ],
    "samplers" : [
        {
            "magFilter" : 9729,
            "minFilter" : 9986
        }
    ],
    "buffers" : [
        {
            "byteLength" : 181608,
            "uri" : "Helm.bin"
        }
    ]
}
